<?xml version="1.0" encoding="UTF-8" standalone="no"?><svg xmlns="http://www.w3.org/2000/svg" xmlns:xlink="http://www.w3.org/1999/xlink" fill="none" height="17.1" preserveAspectRatio="xMidYMid meet" style="fill: none" version="1" viewBox="1.0 3.5 21.6 17.1" width="21.6" zoomAndPan="magnify"><g id="change1_1"><path clip-rule="evenodd" d="M11 6.0806C11 4.40358 12.9399 3.47124 14.2494 4.51886L21.6486 10.4382C22.6494 11.2389 22.6494 12.7611 21.6486 13.5617L14.2494 19.4811C12.9399 20.5287 11 19.5964 11 17.9193V6.0806ZM13.6247 5.29973L13 6.0806V17.9193L20.3992 12L13 6.0806L13.6247 5.29973Z" fill="#fedd02" fill-rule="evenodd"/></g><g id="change1_2"><path clip-rule="evenodd" d="M1 6.0806C1 4.40358 2.93987 3.47124 4.24939 4.51886L11.6486 10.4382C12.6494 11.2389 12.6494 12.7611 11.6486 13.5617L4.24939 19.4811C2.93986 20.5287 1 19.5964 1 17.9193V6.0806ZM3.6247 5.29973L3 6.0806V17.9193L10.3992 12L3 6.0806L3.6247 5.29973Z" fill="#fedd02" fill-rule="evenodd"/></g></svg>