<?xml version="1.0" encoding="UTF-8"?><svg xmlns="http://www.w3.org/2000/svg" xmlns:xlink="http://www.w3.org/1999/xlink" height="75.4" preserveAspectRatio="xMidYMid meet" version="1.0" viewBox="-0.7 0.0 73.0 75.4" width="73.0" zoomAndPan="magnify"><g data-name="43" id="change1_1"><path d="M-.668,6.991V1.5h0A1.516,1.516,0,0,1,.832,0H6.181a1.526,1.526,0,0,1,1.5,1.5A1.517,1.517,0,0,1,6.181,3H2.332V6.991a1.526,1.526,0,0,1-1.5,1.5A1.516,1.516,0,0,1-.668,6.991ZM70.868,0h-5.35a1.527,1.527,0,0,0-1.5,1.5,1.518,1.518,0,0,0,1.5,1.5h3.85V6.991a1.5,1.5,0,0,0,3,0V1.5h0A1.518,1.518,0,0,0,70.868,0ZM6.181,72.354H2.332V68.36a1.526,1.526,0,0,0-1.5-1.5,1.516,1.516,0,0,0-1.5,1.5v5.494a1.516,1.516,0,0,0,1.5,1.5H6.181a1.5,1.5,0,0,0,0-3ZM70.868,66.86a1.526,1.526,0,0,0-1.5,1.5v3.994h-3.85a1.5,1.5,0,0,0,0,3h5.35a1.518,1.518,0,0,0,1.5-1.5V68.36A1.517,1.517,0,0,0,70.868,66.86ZM59.018,37.735l-1.583,1.578a30.469,30.469,0,0,1-21.027,9.311c-10.778.258-18.68-5.582-22.441-9.363-.55-.552-.985-1.035-1.286-1.381l.885-1.04c1.181-1.334,9.449-10.358,22.842-10.116a30.46,30.46,0,0,1,21.027,9.312ZM32.536,45.424a8.426,8.426,0,0,1,.01-15.5,27.632,27.632,0,0,0-15.919,7.751A27.633,27.633,0,0,0,32.536,45.424Zm8.742-7.748A5.429,5.429,0,1,0,35.85,43.1,5.435,5.435,0,0,0,41.278,37.676Zm13.56,0a27.614,27.614,0,0,0-15.632-7.726,8.422,8.422,0,0,1,.01,15.45A27.6,27.6,0,0,0,54.838,37.674Zm12.548,0A31.536,31.536,0,1,1,35.85,6.14,31.572,31.572,0,0,1,67.386,37.676Zm-3,0A28.536,28.536,0,1,0,35.85,66.212,28.568,28.568,0,0,0,64.386,37.676Z"/></g></svg>