<?xml version="1.0" encoding="UTF-8" standalone="no"?><svg xmlns="http://www.w3.org/2000/svg" xmlns:xlink="http://www.w3.org/1999/xlink" fill="#ffffff" height="42.1" preserveAspectRatio="xMidYMid meet" version="1" viewBox="0.3 8.9 59.5 42.1" width="59.5" zoomAndPan="magnify"><g id="change1_1"><path d="m24.6 17.3c-.2-.2-.5-.2-.8 0-.2.1-.4.4-.4.7v21.8c0 .3.2.5.4.7.1.1.2.1.4.1.1 0 .3 0 .4-.1l16.6-10.9c.2-.1.3-.4.3-.6s-.1-.5-.3-.6zm.3 21.1v-19l14.5 9.5z" fill="inherit"/></g><g id="change1_2"><path d="m50.3 8.9h-40.6c-5.2 0-9.4 4.2-9.4 9.4v23.3c0 5.2 4.2 9.4 9.4 9.4h40.7c5.2 0 9.4-4.2 9.4-9.4v-23.2c0-5.2-4.3-9.5-9.5-9.5zm7.9 32.7c0 4.4-3.6 7.9-7.9 7.9h-40.6c-4.4 0-7.9-3.6-7.9-7.9v-23.2c0-4.4 3.6-7.9 7.9-7.9h40.7c4.4 0 7.9 3.6 7.9 7.9v23.2z" fill="inherit"/></g></svg>